<svg width="858" height="642" viewBox="0 0 858 642" fill="none" xmlns="http://www.w3.org/2000/svg">
<path d="M430.23 1.03687L145.754 142.982V428.353L430.23 286.408V1.03687Z" stroke="#595959"/>
<path d="M572.469 215.929L430.23 286.456V428.247L572.469 357.719V215.929Z" stroke="#595959"/>
<path d="M857 73.5763L714.488 144.104V285.894L857 215.367V73.5763Z" stroke="#595959"/>
<path d="M215.123 322.112L72.6113 392.639V534.429L215.123 463.902V322.112Z" stroke="#595959"/>
<path d="M572.469 357.728L644.08 393.165V464.407L572.469 428.97V357.728Z" stroke="#595959"/>
<path d="M430.231 534.431L358.619 569.867V641.109L430.231 605.673V534.431Z" stroke="#595959"/>
<path d="M642.877 37.1995L714.488 72.6359V143.878L642.877 108.442V37.1995Z" stroke="#595959"/>
<path d="M0.999908 285.895L72.6113 321.332V392.574L0.999908 357.138V285.895Z" stroke="#595959"/>
<path d="M785.389 392.574L857 428.011V499.253L785.389 463.816V392.574Z" stroke="#595959"/>
<path d="M145.81 0.498413C146.44 0.498625 146.95 1.00987 146.95 1.64001C146.95 2.26998 146.44 2.78043 145.81 2.78064C145.179 2.78064 144.668 2.27011 144.668 1.64001C144.668 1.00974 145.179 0.498413 145.81 0.498413Z" stroke="#595959"/>
<path d="M288.048 0.498413C288.678 0.498625 289.188 1.00987 289.188 1.64001C289.188 2.26998 288.678 2.78043 288.048 2.78064C287.418 2.78064 286.906 2.27011 286.906 1.64001C286.906 1.00974 287.418 0.498413 288.048 0.498413Z" stroke="#595959"/>
<path d="M430.286 0.498413C430.916 0.498625 431.427 1.00987 431.427 1.64001C431.427 2.26998 430.916 2.78043 430.286 2.78064C429.656 2.78064 429.145 2.27011 429.145 1.64001C429.145 1.00974 429.656 0.498413 430.286 0.498413Z" stroke="#595959"/>
<path d="M572.524 0.498413C573.155 0.498625 573.665 1.00987 573.665 1.64001C573.665 2.26998 573.154 2.78043 572.524 2.78064C571.894 2.78064 571.383 2.27011 571.383 1.64001C571.383 1.00974 571.894 0.498413 572.524 0.498413Z" stroke="#595959"/>
<path d="M714.714 0.498413C715.344 0.498625 715.854 1.00987 715.854 1.64001C715.854 2.26998 715.344 2.78043 714.714 2.78064C714.084 2.78064 713.572 2.27011 713.572 1.64001C713.572 1.00974 714.084 0.498413 714.714 0.498413Z" stroke="#595959"/>
<path d="M145.81 142.737C146.44 142.737 146.95 143.248 146.95 143.878C146.95 144.508 146.44 145.019 145.81 145.019C145.179 145.019 144.668 144.509 144.668 143.878C144.668 143.248 145.179 142.737 145.81 142.737Z" stroke="#595959"/>
<path d="M145.81 284.975C146.44 284.975 146.95 285.487 146.95 286.117C146.95 286.747 146.44 287.257 145.81 287.257C145.179 287.257 144.668 286.747 144.668 286.117C144.668 285.487 145.179 284.975 145.81 284.975Z" stroke="#595959"/>
<path d="M145.81 427.214C146.44 427.214 146.95 427.725 146.95 428.355C146.95 428.985 146.44 429.496 145.81 429.496C145.179 429.496 144.668 428.985 144.668 428.355C144.668 427.725 145.179 427.214 145.81 427.214Z" stroke="#595959"/>
<path d="M145.81 569.448C146.44 569.449 146.95 569.96 146.95 570.59C146.95 571.22 146.44 571.73 145.81 571.731C145.179 571.731 144.668 571.22 144.668 570.59C144.668 569.96 145.179 569.448 145.81 569.448Z" stroke="#595959"/>
<path d="M288.048 142.737C288.678 142.737 289.188 143.248 289.188 143.878C289.188 144.508 288.678 145.019 288.048 145.019C287.418 145.019 286.906 144.509 286.906 143.878C286.906 143.248 287.418 142.737 288.048 142.737Z" stroke="#595959"/>
<path d="M288.048 284.975C288.678 284.975 289.188 285.487 289.188 286.117C289.188 286.747 288.678 287.257 288.048 287.257C287.418 287.257 286.906 286.747 286.906 286.117C286.906 285.487 287.418 284.975 288.048 284.975Z" stroke="#595959"/>
<path d="M288.048 427.214C288.678 427.214 289.188 427.725 289.188 428.355C289.188 428.985 288.678 429.496 288.048 429.496C287.418 429.496 286.906 428.985 286.906 428.355C286.906 427.725 287.418 427.214 288.048 427.214Z" stroke="#595959"/>
<path d="M288.048 569.448C288.678 569.449 289.188 569.96 289.188 570.59C289.188 571.22 288.678 571.73 288.048 571.731C287.418 571.731 286.906 571.22 286.906 570.59C286.906 569.96 287.418 569.448 288.048 569.448Z" stroke="#595959"/>
<path d="M430.286 142.737C430.916 142.737 431.427 143.248 431.427 143.878C431.427 144.508 430.916 145.019 430.286 145.019C429.656 145.019 429.145 144.509 429.145 143.878C429.145 143.248 429.656 142.737 430.286 142.737Z" stroke="#595959"/>
<path d="M430.286 284.975C430.916 284.975 431.427 285.487 431.427 286.117C431.427 286.747 430.916 287.257 430.286 287.257C429.656 287.257 429.145 286.747 429.145 286.117C429.145 285.487 429.656 284.975 430.286 284.975Z" stroke="#595959"/>
<path d="M430.286 427.214C430.916 427.214 431.427 427.725 431.427 428.355C431.427 428.985 430.916 429.496 430.286 429.496C429.656 429.496 429.145 428.985 429.145 428.355C429.145 427.725 429.656 427.214 430.286 427.214Z" stroke="#595959"/>
<path d="M430.286 569.448C430.916 569.449 431.427 569.96 431.427 570.59C431.427 571.22 430.916 571.73 430.286 571.731C429.656 571.731 429.145 571.22 429.145 570.59C429.145 569.96 429.656 569.448 430.286 569.448Z" stroke="#595959"/>
<path d="M572.524 142.737C573.155 142.737 573.665 143.248 573.665 143.878C573.665 144.508 573.154 145.019 572.524 145.019C571.894 145.019 571.383 144.509 571.383 143.878C571.383 143.248 571.894 142.737 572.524 142.737Z" stroke="#595959"/>
<path d="M572.524 284.975C573.155 284.975 573.665 285.487 573.665 286.117C573.665 286.747 573.154 287.257 572.524 287.257C571.894 287.257 571.383 286.747 571.383 286.117C571.383 285.487 571.894 284.975 572.524 284.975Z" stroke="#595959"/>
<path d="M572.524 427.214C573.155 427.214 573.665 427.725 573.665 428.355C573.665 428.985 573.154 429.496 572.524 429.496C571.894 429.496 571.383 428.985 571.383 428.355C571.383 427.725 571.894 427.214 572.524 427.214Z" stroke="#595959"/>
<path d="M572.524 569.448C573.155 569.449 573.665 569.96 573.665 570.59C573.665 571.22 573.154 571.73 572.524 571.731C571.894 571.731 571.383 571.22 571.383 570.59C571.383 569.96 571.894 569.448 572.524 569.448Z" stroke="#595959"/>
<path d="M714.714 142.737C715.344 142.737 715.854 143.248 715.854 143.878C715.854 144.508 715.344 145.019 714.714 145.019C714.084 145.019 713.572 144.509 713.572 143.878C713.572 143.248 714.084 142.737 714.714 142.737Z" stroke="#595959"/>
<path d="M714.714 284.975C715.344 284.975 715.854 285.487 715.854 286.117C715.854 286.747 715.344 287.257 714.714 287.257C714.084 287.257 713.572 286.747 713.572 286.117C713.572 285.487 714.084 284.975 714.714 284.975Z" stroke="#595959"/>
<path d="M714.714 427.214C715.344 427.214 715.854 427.725 715.854 428.355C715.854 428.985 715.344 429.496 714.714 429.496C714.084 429.496 713.572 428.985 713.572 428.355C713.572 427.725 714.084 427.214 714.714 427.214Z" stroke="#595959"/>
<path d="M714.714 569.448C715.344 569.449 715.854 569.96 715.854 570.59C715.854 571.22 715.344 571.73 714.714 571.731C714.084 571.731 713.572 571.22 713.572 570.59C713.572 569.96 714.084 569.448 714.714 569.448Z" stroke="#595959"/>
</svg>
