<svg width="24" height="34" viewBox="0 0 24 34" fill="none" xmlns="http://www.w3.org/2000/svg">
<path d="M23.6663 11.9999C23.6663 10.4678 23.3646 8.95074 22.7783 7.53528C22.192 6.11981 21.3326 4.83369 20.2493 3.75034C19.1659 2.66699 17.8798 1.80763 16.4643 1.22132C15.0489 0.635019 13.5318 0.333252 11.9997 0.333252C10.4676 0.333252 8.9505 0.635019 7.53503 1.22132C6.11957 1.80763 4.83345 2.66699 3.7501 3.75034C2.66675 4.83369 1.80738 6.11981 1.22108 7.53528C0.634775 8.95074 0.333008 10.4678 0.333008 11.9999C0.333008 14.3116 1.01467 16.4616 2.17467 18.2749H2.16134L11.9997 33.6666L21.838 18.2749H21.8263C23.0279 16.4026 23.6665 14.2246 23.6663 11.9999ZM11.9997 16.9999C10.6736 16.9999 9.40182 16.4731 8.46414 15.5355C7.52646 14.5978 6.99968 13.326 6.99968 11.9999C6.99968 10.6738 7.52646 9.40207 8.46414 8.46439C9.40182 7.5267 10.6736 6.99992 11.9997 6.99992C13.3258 6.99992 14.5975 7.5267 15.5352 8.46439C16.4729 9.40207 16.9997 10.6738 16.9997 11.9999C16.9997 13.326 16.4729 14.5978 15.5352 15.5355C14.5975 16.4731 13.3258 16.9999 11.9997 16.9999Z" fill="white"/>
</svg>
