<svg width="321" height="823" viewBox="0 0 321 823" fill="none" xmlns="http://www.w3.org/2000/svg">
<rect x="319.967" y="3.0406" width="99" height="99" transform="rotate(90.2428 319.967 3.0406)" stroke="url(#paint0_linear_1285_8882)" stroke-opacity="0.2"/>
<rect x="19.9705" y="1.76924" width="99" height="99" transform="rotate(90.2428 19.9705 1.76924)" stroke="url(#paint1_linear_1285_8882)" stroke-opacity="0.2"/>
<rect x="219.967" y="2.61677" width="99" height="99" transform="rotate(90.2428 219.967 2.61677)" stroke="url(#paint2_linear_1285_8882)" stroke-opacity="0.2"/>
<rect x="119.967" y="2.19307" width="99" height="99" transform="rotate(90.2428 119.967 2.19307)" stroke="url(#paint3_linear_1285_8882)" stroke-opacity="0.2"/>
<rect x="318.135" y="435.037" width="99" height="99" transform="rotate(90.2428 318.135 435.037)" stroke="url(#paint4_linear_1285_8882)" stroke-opacity="0.2"/>
<rect x="18.1385" y="433.765" width="99" height="99" transform="rotate(90.2428 18.1385 433.765)" stroke="url(#paint5_linear_1285_8882)" stroke-opacity="0.2"/>
<rect x="218.139" y="434.613" width="99" height="99" transform="rotate(90.2428 218.139 434.613)" stroke="url(#paint6_linear_1285_8882)" stroke-opacity="0.2"/>
<rect x="118.139" y="434.189" width="99" height="99" transform="rotate(90.2428 118.139 434.189)" stroke="url(#paint7_linear_1285_8882)" stroke-opacity="0.2"/>
<rect x="319.357" y="147.039" width="99" height="99" transform="rotate(90.2428 319.357 147.039)" stroke="url(#paint8_linear_1285_8882)" stroke-opacity="0.2"/>
<rect x="19.3573" y="145.768" width="99" height="99" transform="rotate(90.2428 19.3573 145.768)" stroke="url(#paint9_linear_1285_8882)" stroke-opacity="0.2"/>
<rect x="219.357" y="146.616" width="99" height="99" transform="rotate(90.2428 219.357 146.616)" stroke="url(#paint10_linear_1285_8882)" stroke-opacity="0.2"/>
<rect x="119.357" y="146.192" width="99" height="99" transform="rotate(90.2428 119.357 146.192)" stroke="url(#paint11_linear_1285_8882)" stroke-opacity="0.2"/>
<rect x="317.525" y="579.035" width="99" height="99" transform="rotate(90.2428 317.525 579.035)" stroke="url(#paint12_linear_1285_8882)" stroke-opacity="0.2"/>
<rect x="17.5291" y="577.764" width="99" height="99" transform="rotate(90.2428 17.5291 577.764)" stroke="url(#paint13_linear_1285_8882)" stroke-opacity="0.2"/>
<rect x="217.525" y="578.612" width="99" height="99" transform="rotate(90.2428 217.525 578.612)" stroke="url(#paint14_linear_1285_8882)" stroke-opacity="0.2"/>
<rect x="117.529" y="578.188" width="99" height="99" transform="rotate(90.2428 117.529 578.188)" stroke="url(#paint15_linear_1285_8882)" stroke-opacity="0.2"/>
<rect x="318.748" y="291.038" width="99" height="99" transform="rotate(90.2428 318.748 291.038)" stroke="url(#paint16_linear_1285_8882)" stroke-opacity="0.2"/>
<rect x="18.7479" y="289.767" width="99" height="99" transform="rotate(90.2428 18.7479 289.767)" stroke="url(#paint17_linear_1285_8882)" stroke-opacity="0.2"/>
<rect x="218.748" y="290.614" width="99" height="99" transform="rotate(90.2428 218.748 290.614)" stroke="url(#paint18_linear_1285_8882)" stroke-opacity="0.2"/>
<rect x="118.748" y="290.19" width="99" height="99" transform="rotate(90.2428 118.748 290.19)" stroke="url(#paint19_linear_1285_8882)" stroke-opacity="0.2"/>
<rect x="316.916" y="723.034" width="99" height="99" transform="rotate(90.2428 316.916 723.034)" stroke="url(#paint20_linear_1285_8882)" stroke-opacity="0.2"/>
<rect x="16.9198" y="721.763" width="99" height="99" transform="rotate(90.2428 16.9198 721.763)" stroke="url(#paint21_linear_1285_8882)" stroke-opacity="0.2"/>
<rect x="216.916" y="722.61" width="99" height="99" transform="rotate(90.2428 216.916 722.61)" stroke="url(#paint22_linear_1285_8882)" stroke-opacity="0.2"/>
<rect x="116.916" y="722.187" width="99" height="99" transform="rotate(90.2428 116.916 722.187)" stroke="url(#paint23_linear_1285_8882)" stroke-opacity="0.2"/>
<defs>
<linearGradient id="paint0_linear_1285_8882" x1="370.469" y1="2.54272" x2="370.469" y2="102.543" gradientUnits="userSpaceOnUse">
<stop stop-color="#F7F7F7"/>
<stop offset="1"/>
</linearGradient>
<linearGradient id="paint1_linear_1285_8882" x1="70.4727" y1="1.27136" x2="70.4727" y2="101.271" gradientUnits="userSpaceOnUse">
<stop stop-color="#F7F7F7"/>
<stop offset="1"/>
</linearGradient>
<linearGradient id="paint2_linear_1285_8882" x1="270.469" y1="2.1189" x2="270.469" y2="102.119" gradientUnits="userSpaceOnUse">
<stop stop-color="#F7F7F7"/>
<stop offset="1"/>
</linearGradient>
<linearGradient id="paint3_linear_1285_8882" x1="170.469" y1="1.69519" x2="170.469" y2="101.695" gradientUnits="userSpaceOnUse">
<stop stop-color="#F7F7F7"/>
<stop offset="1"/>
</linearGradient>
<linearGradient id="paint4_linear_1285_8882" x1="368.637" y1="434.539" x2="368.637" y2="534.539" gradientUnits="userSpaceOnUse">
<stop stop-color="#F7F7F7"/>
<stop offset="1"/>
</linearGradient>
<linearGradient id="paint5_linear_1285_8882" x1="68.6406" y1="433.267" x2="68.6406" y2="533.267" gradientUnits="userSpaceOnUse">
<stop stop-color="#F7F7F7"/>
<stop offset="1"/>
</linearGradient>
<linearGradient id="paint6_linear_1285_8882" x1="268.641" y1="434.115" x2="268.641" y2="534.115" gradientUnits="userSpaceOnUse">
<stop stop-color="#F7F7F7"/>
<stop offset="1"/>
</linearGradient>
<linearGradient id="paint7_linear_1285_8882" x1="168.641" y1="433.691" x2="168.641" y2="533.691" gradientUnits="userSpaceOnUse">
<stop stop-color="#F7F7F7"/>
<stop offset="1"/>
</linearGradient>
<linearGradient id="paint8_linear_1285_8882" x1="369.859" y1="146.541" x2="369.859" y2="246.541" gradientUnits="userSpaceOnUse">
<stop stop-color="#F7F7F7"/>
<stop offset="1"/>
</linearGradient>
<linearGradient id="paint9_linear_1285_8882" x1="69.8594" y1="145.27" x2="69.8594" y2="245.27" gradientUnits="userSpaceOnUse">
<stop stop-color="#F7F7F7"/>
<stop offset="1"/>
</linearGradient>
<linearGradient id="paint10_linear_1285_8882" x1="269.859" y1="146.118" x2="269.859" y2="246.118" gradientUnits="userSpaceOnUse">
<stop stop-color="#F7F7F7"/>
<stop offset="1"/>
</linearGradient>
<linearGradient id="paint11_linear_1285_8882" x1="169.859" y1="145.694" x2="169.859" y2="245.694" gradientUnits="userSpaceOnUse">
<stop stop-color="#F7F7F7"/>
<stop offset="1"/>
</linearGradient>
<linearGradient id="paint12_linear_1285_8882" x1="368.027" y1="578.538" x2="368.027" y2="678.538" gradientUnits="userSpaceOnUse">
<stop stop-color="#F7F7F7"/>
<stop offset="1"/>
</linearGradient>
<linearGradient id="paint13_linear_1285_8882" x1="68.0312" y1="577.266" x2="68.0312" y2="677.266" gradientUnits="userSpaceOnUse">
<stop stop-color="#F7F7F7"/>
<stop offset="1"/>
</linearGradient>
<linearGradient id="paint14_linear_1285_8882" x1="268.027" y1="578.114" x2="268.027" y2="678.114" gradientUnits="userSpaceOnUse">
<stop stop-color="#F7F7F7"/>
<stop offset="1"/>
</linearGradient>
<linearGradient id="paint15_linear_1285_8882" x1="168.031" y1="577.69" x2="168.031" y2="677.69" gradientUnits="userSpaceOnUse">
<stop stop-color="#F7F7F7"/>
<stop offset="1"/>
</linearGradient>
<linearGradient id="paint16_linear_1285_8882" x1="369.25" y1="290.54" x2="369.25" y2="390.54" gradientUnits="userSpaceOnUse">
<stop stop-color="#F7F7F7"/>
<stop offset="1"/>
</linearGradient>
<linearGradient id="paint17_linear_1285_8882" x1="69.25" y1="289.269" x2="69.25" y2="389.269" gradientUnits="userSpaceOnUse">
<stop stop-color="#F7F7F7"/>
<stop offset="1"/>
</linearGradient>
<linearGradient id="paint18_linear_1285_8882" x1="269.25" y1="290.116" x2="269.25" y2="390.116" gradientUnits="userSpaceOnUse">
<stop stop-color="#F7F7F7"/>
<stop offset="1"/>
</linearGradient>
<linearGradient id="paint19_linear_1285_8882" x1="169.25" y1="289.693" x2="169.25" y2="389.693" gradientUnits="userSpaceOnUse">
<stop stop-color="#F7F7F7"/>
<stop offset="1"/>
</linearGradient>
<linearGradient id="paint20_linear_1285_8882" x1="367.418" y1="722.536" x2="367.418" y2="822.536" gradientUnits="userSpaceOnUse">
<stop stop-color="#F7F7F7"/>
<stop offset="1"/>
</linearGradient>
<linearGradient id="paint21_linear_1285_8882" x1="67.4219" y1="721.265" x2="67.4219" y2="821.265" gradientUnits="userSpaceOnUse">
<stop stop-color="#F7F7F7"/>
<stop offset="1"/>
</linearGradient>
<linearGradient id="paint22_linear_1285_8882" x1="267.418" y1="722.113" x2="267.418" y2="822.113" gradientUnits="userSpaceOnUse">
<stop stop-color="#F7F7F7"/>
<stop offset="1"/>
</linearGradient>
<linearGradient id="paint23_linear_1285_8882" x1="167.418" y1="721.689" x2="167.418" y2="821.689" gradientUnits="userSpaceOnUse">
<stop stop-color="#F7F7F7"/>
<stop offset="1"/>
</linearGradient>
</defs>
</svg>
